<mxfile host="Electron" modified="2024-03-12T15:55:35.963Z" agent="Mozilla/5.0 (Macintosh; Intel Mac OS X 10_15_7) AppleWebKit/537.36 (KHTML, like Gecko) draw.io/24.0.4 Chrome/120.0.6099.109 Electron/28.1.0 Safari/537.36" etag="g-GSf0Bf5x1TNweZP27z" version="24.0.4" type="device">
  <diagram name="Page-1" id="ZRe_wIOORr0k_d4isBBX">
    <mxGraphModel dx="2219" dy="1840" grid="1" gridSize="10" guides="1" tooltips="1" connect="1" arrows="1" fold="1" page="1" pageScale="1" pageWidth="1169" pageHeight="827" math="0" shadow="0">
      <root>
        <mxCell id="0" />
        <mxCell id="1" parent="0" />
        <mxCell id="I-3xDNqU13IutiKupr62-62" value="" style="endArrow=classic;html=1;rounded=0;fontSize=12;startSize=8;endSize=8;curved=1;strokeWidth=2;exitX=0.5;exitY=1;exitDx=0;exitDy=0;entryX=0.5;entryY=0;entryDx=0;entryDy=0;" parent="1" source="CqYlGcgU1QHX9f7NfkNa-4" target="CqYlGcgU1QHX9f7NfkNa-2" edge="1">
          <mxGeometry width="50" height="50" relative="1" as="geometry">
            <mxPoint x="-810" y="-819.39" as="sourcePoint" />
            <mxPoint x="-655.5" y="-679.39" as="targetPoint" />
          </mxGeometry>
        </mxCell>
        <mxCell id="I-3xDNqU13IutiKupr62-63" value="Register Identifiers&lt;div&gt;and use Schemas&lt;/div&gt;" style="edgeLabel;html=1;align=center;verticalAlign=middle;resizable=0;points=[];fontSize=16;" parent="I-3xDNqU13IutiKupr62-62" vertex="1" connectable="0">
          <mxGeometry x="-0.1786" y="-1" relative="1" as="geometry">
            <mxPoint as="offset" />
          </mxGeometry>
        </mxCell>
        <mxCell id="I-3xDNqU13IutiKupr62-10" style="edgeStyle=none;curved=1;rounded=0;orthogonalLoop=1;jettySize=auto;html=1;exitX=0;exitY=0.5;exitDx=0;exitDy=0;fontSize=12;startSize=8;endSize=8;" parent="1" edge="1">
          <mxGeometry relative="1" as="geometry">
            <mxPoint x="-1060" y="-519" as="sourcePoint" />
            <mxPoint x="-1060" y="-519" as="targetPoint" />
          </mxGeometry>
        </mxCell>
        <mxCell id="CqYlGcgU1QHX9f7NfkNa-2" value="&lt;font style=&quot;font-size: 16px;&quot;&gt;&lt;i&gt;&lt;b&gt;Verifiable Data Registry&lt;/b&gt;&lt;/i&gt;&lt;/font&gt;&lt;div&gt;&lt;font style=&quot;font-size: 16px;&quot;&gt;&lt;i&gt;Maintains identifiers and schemas&lt;/i&gt;&lt;/font&gt;&lt;/div&gt;" style="rounded=1;whiteSpace=wrap;html=1;fillColor=none;strokeWidth=2;" vertex="1" parent="1">
          <mxGeometry x="-723.5" y="-440" width="354" height="60" as="geometry" />
        </mxCell>
        <mxCell id="CqYlGcgU1QHX9f7NfkNa-4" value="&lt;div&gt;&lt;font style=&quot;font-size: 16px;&quot;&gt;&lt;i&gt;&lt;b&gt;Holder&lt;/b&gt;&lt;/i&gt;&lt;/font&gt;&lt;/div&gt;&lt;div&gt;&lt;font style=&quot;font-size: 16px;&quot;&gt;&lt;i&gt;Acquired, stores, presents VCs&lt;/i&gt;&lt;/font&gt;&lt;/div&gt;" style="rounded=1;whiteSpace=wrap;html=1;fillColor=none;strokeWidth=2;" vertex="1" parent="1">
          <mxGeometry x="-622" y="-620" width="151" height="70" as="geometry" />
        </mxCell>
        <mxCell id="CqYlGcgU1QHX9f7NfkNa-5" value="&lt;div&gt;&lt;span style=&quot;font-size: 16px;&quot;&gt;&lt;b&gt;&lt;i&gt;Verifier&lt;/i&gt;&lt;/b&gt;&lt;/span&gt;&lt;/div&gt;&lt;div&gt;&lt;font style=&quot;font-size: 16px;&quot;&gt;&lt;i&gt;Verifies VCs&lt;/i&gt;&lt;/font&gt;&lt;/div&gt;" style="rounded=1;whiteSpace=wrap;html=1;fillColor=none;strokeWidth=2;" vertex="1" parent="1">
          <mxGeometry x="-301" y="-620" width="151" height="70" as="geometry" />
        </mxCell>
        <mxCell id="CqYlGcgU1QHX9f7NfkNa-6" value="&lt;div&gt;&lt;span style=&quot;font-size: 16px;&quot;&gt;&lt;b&gt;&lt;i&gt;Issuer&lt;/i&gt;&lt;/b&gt;&lt;/span&gt;&lt;/div&gt;&lt;div&gt;&lt;font style=&quot;font-size: 16px;&quot;&gt;&lt;i&gt;Issues VCs&lt;/i&gt;&lt;/font&gt;&lt;/div&gt;" style="rounded=1;whiteSpace=wrap;html=1;fillColor=none;strokeWidth=2;" vertex="1" parent="1">
          <mxGeometry x="-943" y="-620" width="151" height="70" as="geometry" />
        </mxCell>
        <mxCell id="CqYlGcgU1QHX9f7NfkNa-7" value="" style="edgeStyle=elbowEdgeStyle;elbow=horizontal;endArrow=classic;html=1;curved=0;rounded=0;endSize=8;startSize=8;fontSize=12;exitX=0.5;exitY=1;exitDx=0;exitDy=0;entryX=0;entryY=0.5;entryDx=0;entryDy=0;strokeWidth=2;" edge="1" parent="1" source="CqYlGcgU1QHX9f7NfkNa-6" target="CqYlGcgU1QHX9f7NfkNa-2">
          <mxGeometry width="50" height="50" relative="1" as="geometry">
            <mxPoint x="-890" y="-410" as="sourcePoint" />
            <mxPoint x="-840" y="-460" as="targetPoint" />
            <Array as="points">
              <mxPoint x="-867" y="-480" />
            </Array>
          </mxGeometry>
        </mxCell>
        <mxCell id="CqYlGcgU1QHX9f7NfkNa-8" value="&lt;font style=&quot;font-size: 17px;&quot;&gt;Verify Identifiers&amp;nbsp;&lt;/font&gt;&lt;div&gt;&lt;font style=&quot;font-size: 17px;&quot;&gt;and use Schemas&lt;/font&gt;&lt;/div&gt;" style="edgeLabel;html=1;align=center;verticalAlign=middle;resizable=0;points=[];fontSize=12;" vertex="1" connectable="0" parent="CqYlGcgU1QHX9f7NfkNa-7">
          <mxGeometry x="-0.6027" y="-1" relative="1" as="geometry">
            <mxPoint y="-6" as="offset" />
          </mxGeometry>
        </mxCell>
        <mxCell id="CqYlGcgU1QHX9f7NfkNa-9" value="" style="edgeStyle=elbowEdgeStyle;elbow=horizontal;endArrow=classic;html=1;curved=0;rounded=0;endSize=8;startSize=8;fontSize=12;exitX=0.5;exitY=1;exitDx=0;exitDy=0;entryX=1;entryY=0.5;entryDx=0;entryDy=0;strokeWidth=2;" edge="1" parent="1" source="CqYlGcgU1QHX9f7NfkNa-5" target="CqYlGcgU1QHX9f7NfkNa-2">
          <mxGeometry width="50" height="50" relative="1" as="geometry">
            <mxPoint x="-240" y="-510" as="sourcePoint" />
            <mxPoint x="-86" y="-370" as="targetPoint" />
            <Array as="points">
              <mxPoint x="-225" y="-470" />
            </Array>
          </mxGeometry>
        </mxCell>
        <mxCell id="CqYlGcgU1QHX9f7NfkNa-10" value="&lt;font style=&quot;font-size: 17px;&quot;&gt;Verify Identifiers&amp;nbsp;&lt;/font&gt;&lt;div&gt;&lt;font style=&quot;font-size: 17px;&quot;&gt;and Schemas&lt;/font&gt;&lt;/div&gt;" style="edgeLabel;html=1;align=center;verticalAlign=middle;resizable=0;points=[];fontSize=12;" vertex="1" connectable="0" parent="CqYlGcgU1QHX9f7NfkNa-9">
          <mxGeometry x="-0.6027" y="-1" relative="1" as="geometry">
            <mxPoint y="-7" as="offset" />
          </mxGeometry>
        </mxCell>
        <mxCell id="CqYlGcgU1QHX9f7NfkNa-11" value="" style="shape=flexArrow;endArrow=classic;html=1;rounded=0;fontSize=12;startSize=8;endSize=9.67;curved=1;width=26;entryX=0;entryY=0.5;entryDx=0;entryDy=0;exitX=1;exitY=0.5;exitDx=0;exitDy=0;" edge="1" parent="1" source="CqYlGcgU1QHX9f7NfkNa-6" target="CqYlGcgU1QHX9f7NfkNa-4">
          <mxGeometry width="50" height="50" relative="1" as="geometry">
            <mxPoint x="-769" y="-580.5" as="sourcePoint" />
            <mxPoint x="-630" y="-580" as="targetPoint" />
          </mxGeometry>
        </mxCell>
        <mxCell id="CqYlGcgU1QHX9f7NfkNa-12" value="&lt;font style=&quot;font-size: 15px;&quot;&gt;Issue Credentials&lt;/font&gt;" style="edgeLabel;html=1;align=center;verticalAlign=middle;resizable=0;points=[];fontSize=12;" vertex="1" connectable="0" parent="CqYlGcgU1QHX9f7NfkNa-11">
          <mxGeometry x="-0.1789" y="1" relative="1" as="geometry">
            <mxPoint as="offset" />
          </mxGeometry>
        </mxCell>
        <mxCell id="CqYlGcgU1QHX9f7NfkNa-13" value="" style="shape=flexArrow;endArrow=classic;html=1;rounded=0;fontSize=12;startSize=8;endSize=9.67;curved=1;width=26;entryX=0;entryY=0.5;entryDx=0;entryDy=0;" edge="1" parent="1">
          <mxGeometry width="50" height="50" relative="1" as="geometry">
            <mxPoint x="-471" y="-580" as="sourcePoint" />
            <mxPoint x="-301" y="-580.5" as="targetPoint" />
          </mxGeometry>
        </mxCell>
        <mxCell id="CqYlGcgU1QHX9f7NfkNa-14" value="&lt;font style=&quot;font-size: 15px;&quot;&gt;Send Presentation&lt;/font&gt;" style="edgeLabel;html=1;align=center;verticalAlign=middle;resizable=0;points=[];fontSize=12;" vertex="1" connectable="0" parent="CqYlGcgU1QHX9f7NfkNa-13">
          <mxGeometry x="-0.1789" y="1" relative="1" as="geometry">
            <mxPoint as="offset" />
          </mxGeometry>
        </mxCell>
      </root>
    </mxGraphModel>
  </diagram>
</mxfile>
